<svg width="266.338" height="213.898" viewBox="0 0 70.469 56.594" xml:space="preserve" xmlns="http://www.w3.org/2000/svg"><g style="display:inline" transform="translate(-49.877 -94.024)"><path style="fill:#f74c00;fill-opacity:1;stroke:none" d="M91.857 94.155c-4.17 1.16-9.643 7.43-11.119 10.975-2.023-.986-6.115-5.187-9.918-5.233-2.76 3.415-3.31 8.827-1.976 13.274-3.34-1.552-7.657-1.925-11.342-.76-.63 3.58.492 7.382 2.815 10.32-3.902.029-7.676 2.296-10.306 5.125-.09 1.473 4.095 6.92 6.664 7.986 1.936 2.824 4.004 4.5 6.527 5.503-1.397 1.563.063 2.777 1.88 3.642-.354 2.636 1.695 3.122 3.724 2.915.598 1.695.88 1.88 2.404 2.277 3.13.767 4.114-.886 5.947-6.483 4.309 1.169 14.267 1.324 17.653.704-.066.849.553 8.371 4.758 5.393.753-.623 1.8-1.302 2.16-2.114 1.344-.337 2.033-1.298 2.266-2.411 2.11.025 2.357-2.979 1.777-4.6 3.692.655 8.138-1.198 10.362-3.953.704-.918 1.1-2.178 1.205-3.501l.022-.013c1.5-2.035 2.48-4.008 2.853-6.358-.93-.877-5.514-3.92-7.98-4.085 1.795-1.191 5.386-7.21 5.486-11.046-3.46-1.306-9.51.113-11.972 1.652 2.22-2.912 2.89-9.537 1.623-12.251-4.028.583-7.677 1.395-10.612 3.912-.354-3.884-1.645-8.433-4.9-10.87z"/><path style="fill:none;fill-opacity:1;stroke:#000;stroke-width:.265;stroke-linecap:round;stroke-linejoin:round;stroke-dasharray:none;stroke-opacity:1" d="M56.674 135.843c-2.568-1.067-6.753-6.514-6.663-7.987 2.048-2.24 6.27-5.278 10.306-5.125-1.412-1.75-3.745-6.105-2.815-10.319 3.645-1.166 9.737-.41 11.342.759-.712-2.278-1.344-10.121 1.976-13.274 3.803.047 7.895 4.247 9.918 5.232 1.25-3.17 7.441-10.485 11.12-10.973 3.672 2.67 4.994 9.183 4.9 10.87 2.999-2.702 9.399-4.084 10.612-3.913 1.482 2.836.414 9.932-1.623 12.25 3.689-2.266 9.42-2.785 11.972-1.651-.1 3.835-3.69 9.854-5.486 11.046 2.466.165 7.05 3.209 7.98 4.086-.202 1.311-1.437 5.28-2.853 6.357"/><path style="fill:none;fill-opacity:1;stroke:#000;stroke-width:.265;stroke-linecap:round;stroke-linejoin:miter;stroke-dasharray:none;stroke-opacity:1" d="M70.188 141.28c4.952 2.96 24.55 6.566 35.213-.74"/><g style="fill:none;fill-opacity:1"><path style="fill:none;fill-opacity:1;stroke:#000;stroke-width:.265;stroke-linecap:round;stroke-linejoin:round;stroke-dasharray:none;stroke-opacity:1" d="M64.565 133.267c3.91 1.903 10.366 3.6 14.495 4.33 2.943-3.156.115-10.966-7.92-12.889-3.084-.738-6.203-.849-8.942.863-2 1.25-4.54 3.525-5.337 5.185-1.546 3.22-.593 6.594 4.42 9.579 7.12 4.238 13.356-1.262 14.175-3.382m33.548-1.921c-3.561 1.705-11.397 2.488-11.397 2.488-2.617-5.019 2.924-9.544 6.967-11.436 2.837-1.328 8.916-1.091 11.275 1.664 1.886 2.202 2.052 6.663.284 8.967-2.799 3.647-10.815 6.986-14.641.34"/></g><g style="fill:none;fill-opacity:1;stroke:#000;stroke-opacity:1"><path style="fill:none;fill-opacity:1;stroke:#000;stroke-width:.265;stroke-linecap:round;stroke-linejoin:round;stroke-dasharray:none;stroke-opacity:1" d="M77.157 143.696c-1.833 5.597-2.818 7.25-5.947 6.482-4.31-1.056-1.678-4.601.694-7.997"/><path style="fill:none;fill-opacity:1;stroke:#000;stroke-width:.265;stroke-linecap:round;stroke-linejoin:round;stroke-dasharray:none;stroke-opacity:1" d="M68.806 147.902c-5.451.566-4.132-4.045-1.76-5.947"/><path style="fill:none;fill-opacity:1;stroke:#000;stroke-width:.265;stroke-linecap:round;stroke-linejoin:round;stroke-dasharray:none;stroke-opacity:1" d="M65.006 144.928c-3.408-1.528-2.506-2.823-1.804-3.583"/></g><g style="fill:none;fill-opacity:1;stroke:#000;stroke-opacity:1"><path style="fill:none;fill-opacity:1;stroke:#000;stroke-width:.265;stroke-linecap:round;stroke-linejoin:round;stroke-dasharray:none;stroke-opacity:1" d="M94.81 144.4c-.066.849.553 8.371 4.758 5.393 1.874-1.326 3.21-1.77 1.596-7.001"/><path style="fill:none;fill-opacity:1;stroke:#000;stroke-width:.265;stroke-linecap:round;stroke-linejoin:round;stroke-dasharray:none;stroke-opacity:1" d="M101.728 147.68c2.78-.7 2.758-4.063 1.691-5.932"/><path style="fill:none;fill-opacity:1;stroke:#000;stroke-width:.265;stroke-linecap:round;stroke-linejoin:round;stroke-dasharray:none;stroke-opacity:1" d="M104.082 145.174c2.702.378 1.798-4.555 1.798-4.555"/></g><g style="stroke:#000;stroke-opacity:1"><path style="fill:none;stroke:#000;stroke-width:.265;stroke-linecap:round;stroke-linejoin:round;stroke-dasharray:none;stroke-opacity:1" d="M59.835 125.042c-.012-1.358 1.348-4.129 2.382-4.776"/><path style="fill:none;stroke:#000;stroke-width:.264583px;stroke-linecap:round;stroke-linejoin:round;stroke-opacity:1" d="M68.02 114.322c.81-1.268 3.434-2.893 4.457-2.975"/><path style="fill:none;stroke:#000;stroke-width:.265;stroke-linecap:round;stroke-linejoin:round;stroke-dasharray:none;stroke-opacity:1" d="M79.826 105.67c.939-.575 3.177-1.136 4.235-.935m11.152.293c1.344-.096 2.927.43 3.86 1.073"/><path style="fill:none;stroke:#000;stroke-width:.264583px;stroke-linecap:round;stroke-linejoin:round;stroke-opacity:1" d="M104.259 112.623c.925.262 2.53 1.583 3.06 2.446m3.839 5.836c.452.508 1.242 2.285 1.29 3.117"/></g><g style="stroke:#000;stroke-opacity:1"><path style="fill:none;stroke:#000;stroke-width:.265;stroke-linecap:round;stroke-linejoin:round;stroke-dasharray:none;stroke-opacity:1" d="M78.19 114.234c.166-1.595 1.665-2.266 2.485-1.274"/><path style="fill:none;stroke:#000;stroke-width:.264583px;stroke-linecap:round;stroke-linejoin:round;stroke-opacity:1" d="M98.226 114.028c1.002-1.807 2.806-1.839 3.846-.422"/></g><g style="fill:#000;fill-opacity:1;stroke:none"><circle style="fill:#000;fill-opacity:1;fill-rule:evenodd;stroke:none;stroke-width:.254;stroke-dasharray:none" cx="75.75" cy="125.535" r=".254"/><circle style="fill:#000;fill-opacity:1;fill-rule:evenodd;stroke:none;stroke-width:.264585" cx="76.753" cy="125.357" r=".254"/><circle style="fill:#000;fill-opacity:1;fill-rule:evenodd;stroke:none;stroke-width:.264584" cx="103.355" cy="125.175" r=".254"/><circle style="fill:#000;fill-opacity:1;fill-rule:evenodd;stroke:none;stroke-width:.264584" cx="104.322" cy="125.282" r=".254"/></g><path style="fill:none;stroke:#000;stroke-width:.265;stroke-linecap:round;stroke-linejoin:round;stroke-dasharray:none;stroke-opacity:1" d="M87.207 125.794c-.504 3.51 3.117 1.191 4.086 1.264.97.073 2.989 1.545 3.594-.755"/><ellipse style="fill:#000;fill-opacity:1;stroke:none;stroke-width:.254151;stroke-linecap:round;stroke-linejoin:round;stroke-dasharray:none;stroke-opacity:1" cx="74.767" cy="121.396" rx="2.761" ry="4.211" transform="skewX(2.79) scale(1 .99881)"/><ellipse style="fill:#fff;fill-opacity:1;stroke:none;stroke-width:.254418;stroke-linecap:round;stroke-linejoin:round;stroke-dasharray:none;stroke-opacity:1" cx="71.231" cy="119.918" rx="1.384" ry="1.55" transform="skewX(4.645) scale(1 .99672)"/><ellipse style="fill:#000;fill-opacity:1;stroke:none;stroke-width:.254605;stroke-linecap:round;stroke-linejoin:round;stroke-dasharray:none;stroke-opacity:1" cx="88.487" cy="120.979" rx="2.948" ry="4.447" transform="skewX(5.586) scale(1 .99525)"/><ellipse style="fill:#fff;fill-opacity:1;stroke:none;stroke-width:.254826;stroke-linecap:round;stroke-linejoin:round;stroke-dasharray:none;stroke-opacity:1" cx="86.711" cy="119.135" rx="1.327" ry="1.612" transform="skewX(6.521) scale(1 .99353)"/></g></svg>