<?xml version="1.0" encoding="UTF-8" standalone="no"?>
<svg
   xmlns:dc="http://purl.org/dc/elements/1.1/"
   xmlns:cc="http://creativecommons.org/ns#"
   xmlns:rdf="http://www.w3.org/1999/02/22-rdf-syntax-ns#"
   xmlns:svg="http://www.w3.org/2000/svg"
   xmlns="http://www.w3.org/2000/svg"
   xmlns:sodipodi="http://sodipodi.sourceforge.net/DTD/sodipodi-0.dtd"
   xmlns:inkscape="http://www.inkscape.org/namespaces/inkscape"
   inkscape:version="1.0 (4035a4fb49, 2020-05-01)"
   sodipodi:docname="owoferris.svg"
   id="svg34"
   style="fill-rule:evenodd;clip-rule:evenodd;stroke-linejoin:round;stroke-miterlimit:1.41421;"
   xml:space="preserve"
   version="1.1"
   viewBox="0 0 4417 3259"
   height="100%"
   width="100%"><metadata
   id="metadata40"><rdf:RDF><cc:Work
       rdf:about=""><dc:format>image/svg+xml</dc:format><dc:type
         rdf:resource="http://purl.org/dc/dcmitype/StillImage" /><dc:title></dc:title></cc:Work></rdf:RDF></metadata><defs
   id="defs38" /><sodipodi:namedview
   inkscape:current-layer="layer2"
   inkscape:window-maximized="1"
   inkscape:window-y="-8"
   inkscape:window-x="-8"
   inkscape:cy="1645.6123"
   inkscape:cx="2066.3819"
   inkscape:zoom="0.23749151"
   inkscape:guide-bbox="true"
   showguides="true"
   showgrid="false"
   id="namedview36"
   inkscape:window-height="1017"
   inkscape:window-width="1920"
   inkscape:pageshadow="2"
   inkscape:pageopacity="0"
   guidetolerance="10"
   gridtolerance="10"
   objecttolerance="10"
   borderopacity="1"
   bordercolor="#666666"
   pagecolor="#ffffff" />
    <g
   id="g32"
   transform="matrix(4.16667,0,0,4.16667,0,0)">
        
        
        
        <path
   id="path8"
   style="fill:rgb(227,58,37);fill-rule:nonzero;"
   d="M97.467,488.066L97.474,488.081C97.659,488.226 97.831,488.357 97.467,488.066Z" />
        
        
        
        
        
        
        
        
        
        
        
    </g><g
   sodipodi:insensitive="true"
   style="display:inline"
   inkscape:label="body"
   id="layer2"
   inkscape:groupmode="layer"><path
     id="path2"
     style="clip-rule:evenodd;fill:#8f1e1c;fill-rule:nonzero;stroke-linejoin:round;stroke-miterlimit:1.41421"
     d="m 525.403,293.05 c -131.633,0 -251.228,15.825 -339.77,41.615 v 220.298 c 88.542,25.79 208.137,41.614 339.77,41.614 150.657,0 285.535,-20.729 376.134,-53.402 V 346.457 C 810.938,313.781 676.06,293.05 525.403,293.05 Z"
     transform="scale(4.16667)" /><path
     id="path4"
     style="clip-rule:evenodd;fill:#8f1e1c;fill-rule:nonzero;stroke-width:4.16667;stroke-linejoin:round;stroke-miterlimit:1.41421"
     d="m 3670.9322,2051.8433 c -16.0709,-44.4292 -19.2875,-100.6417 -5.6708,-154.8418 24.375,-97.0376 93.4209,-150.8251 154.2209,-120.1376 15.075,7.6125 28.225,19.7125 39.1125,35.075 0.9959,0 1.9917,0 2.9792,0.067 0,0 185.6335,221.2752 13.8042,483.3462 -3.7292,14.8709 -318.8919,382.1587 -391.8462,393.8504 -47.75,7.65 62.0459,-374.992 187.4002,-637.3589 z" /><path
     id="path6"
     style="clip-rule:evenodd;fill:#8f1e1c;fill-rule:nonzero;stroke-linejoin:round;stroke-miterlimit:1.41421"
     d="m 176.479,482.021 c 5.3,-9.63 7.158,-22.788 4.217,-36.425 -5.266,-24.416 -23.91,-41.11 -41.642,-37.285 -4.398,0.948 -8.325,3.072 -11.666,6.098 -0.282,-0.058 -0.564,-0.113 -0.845,-0.153 0,0 -56.292,41.952 -12.057,113.924 0.805,3.741 83.851,108.838 104.311,115.763 13.391,4.532 -11.247,-92.525 -42.318,-161.922 z"
     transform="scale(4.16667)" /><path
     sodipodi:nodetypes="cccccccccccccccccccccccccccccccccsccccccccccccccccccccccccccccccccccccc"
     id="path10"
     style="clip-rule:evenodd;fill:#e43a25;fill-rule:nonzero;stroke-linejoin:round;stroke-miterlimit:1.41421"
     d="m 1006.2563,423.00862 c -0.88,-3.064 -14.8933,-16.23162 -15.7993,-19.26762 l 30.683,-44.451 c 3.13,-4.522 3.77,-10.398 1.73,-15.555 -2.04,-5.13 -6.49,-8.81 -11.76,-9.71 l -51.886,-8.805 c -2.008,-4.102 -4.116,-8.142 -6.23,-12.15 l 21.797,-49.903 c 2.243,-5.087 1.769,-10.995 -1.203,-15.608 -2.961,-4.636 -7.99,-7.344 -13.349,-7.133 l -52.656,1.913 c -2.727,-3.55 -5.496,-7.068 -8.322,-10.521 l 12.101,-53.49 c 1.225,-5.433 -0.322,-11.118 -4.103,-15.064 -3.762,-3.932 -9.229,-5.559 -14.426,-4.283 l -51.289,12.608 c -3.321,-2.935 -6.699,-5.833 -10.114,-8.673 l 1.848,-54.914 c 0.198,-5.559 -2.393,-10.841 -6.844,-13.925 -4.446,-3.104 -10.093,-3.573 -14.956,-1.266 l -47.847,22.747 c -3.854,-2.21 -7.728,-4.4 -11.644,-6.517 l -8.455,-54.115 c -0.857,-5.482 -4.385,-10.138 -9.326,-12.265 -4.923,-2.138 -10.568,-1.448 -14.891,1.808 l -42.659,32.007 c -4.2,-1.396 -8.419,-2.733 -12.692,-4.011 L 645.578,21.148 c -1.87,-5.229 -6.181,-9.071 -11.438,-10.151 -5.239,-1.071 -10.63,0.743 -14.263,4.802 L 583.97,55.971 c -4.342,-0.5 -8.685,-0.956 -13.043,-1.332 L 543.204,7.926 c -2.81,-4.732 -7.77,-7.612 -13.116,-7.612 -5.334,0 -10.304,2.88 -13.09,7.612 l -27.733,46.713 c -4.358,0.376 -8.722,0.832 -13.056,1.332 l -35.91,-40.172 c -3.636,-4.059 -9.047,-5.873 -14.268,-4.802 -5.255,1.092 -9.573,4.922 -11.433,10.151 l -18.402,51.317 c -4.26,1.278 -8.481,2.627 -12.691,4.011 L 340.861,44.469 c -4.336,-3.266 -9.98,-3.955 -14.916,-1.808 -4.919,2.127 -8.461,6.783 -9.313,12.265 l -8.461,54.115 c -3.914,2.117 -7.789,4.294 -11.653,6.517 L 248.676,92.811 c -4.858,-2.315 -10.529,-1.838 -14.954,1.266 -4.445,3.084 -7.042,8.366 -6.84,13.925 l 1.835,54.914 c -3.405,2.84 -6.774,5.738 -10.112,8.673 l -51.279,-12.608 c -5.211,-1.265 -10.67,0.351 -14.441,4.283 -3.795,3.946 -5.332,9.631 -4.113,15.064 l 12.079,53.49 c -2.802,3.467 -5.575,6.971 -8.293,10.521 l -52.655,-1.913 c -5.315,-0.157 -10.387,2.497 -13.356,7.133 -2.975,4.613 -3.425,10.521 -1.211,15.608 l 21.814,49.903 c -2.119,4.008 -4.224,8.048 -6.249,12.15 l -51.883,8.805 c -5.271,0.888 -9.714,4.566 -11.764,9.71 -2.037,5.157 -1.376,11.033 1.735,15.555 l 30.69,44.451 c -0.237,0.784 -0.455,1.576 -0.69,2.364 l -16.863,17.912 45.341,64.049 c 0,0 435.152,200.732 838.797,3.396 31.96014,-16.35749 69.9923,-68.45338 69.9923,-68.45338 z"
     transform="scale(4.16667)" /><path
     id="path20"
     style="clip-rule:evenodd;fill:#e43a25;fill-rule:nonzero;stroke-linejoin:round;stroke-miterlimit:1.41421"
     d="m 111.602,499.216 c 10.967,-12.463 37.611,-27.557 35.57,-46.282 -3.653,-33.527 -31.456,-57.999 -62.099,-54.659 -7.6,0.828 -14.658,3.292 -20.924,7.036 -0.462,-0.107 -0.925,-0.211 -1.388,-0.294 0,0 -103.631,50.873 -44.564,152.657 0.557,5.137 117.848,155.668 150.788,167.131 21.559,7.502 -19.911,-128.64 -57.383,-225.589 z"
     transform="scale(4.16667)" /><path
     id="path22"
     style="clip-rule:evenodd;fill:#e43a25;fill-rule:nonzero;stroke-width:4.16667;stroke-linejoin:round;stroke-miterlimit:1.41421"
     d="m 3927.124,2061.1391 c -52.8875,-44.5833 -192.3418,-85.075 -195.5001,-163.4917 -5.65,-140.4085 93.8,-258.4211 222.1335,-263.5836 31.825,-1.2833 62.4333,4.5125 90.5625,16.0709 1.8417,-0.725 3.6834,-1.4417 5.5375,-2.0709 0,0 458.4379,145.6293 277.8961,601.5255 0.875,21.5125 -389.4503,714.2339 -518.1046,781.8131 -84.2042,44.2292 22.9417,-547.6296 117.4751,-970.2633 z" /><g
     id="g920"><path
       transform="scale(4.16667)"
       d="m 191.142,495.558 c 0,0 -1.383,137.296 133.166,167.932 l 28.054,-56.363 c 0,0 -97.495,9.431 -104.995,-111.569 z"
       style="clip-rule:evenodd;fill:#e43a25;fill-rule:nonzero;stroke-linejoin:round;stroke-miterlimit:1.41421"
       id="path24" /><path
       transform="scale(4.16667)"
       d="m 404.746,695.984 c 0,0 55.203,7.295 130.67,9.156 6.61,-47.511 -29.38,-97.792 -86.801,-117.243 -63.438,-21.488 -128.989,2.792 -146.414,54.232 -17.425,51.44 19.876,110.56 83.314,132.049 28.121,9.526 56.653,10.049 81.229,3.207 -36.911,-36.505 -61.998,-81.401 -61.998,-81.401 z"
       style="clip-rule:evenodd;fill:#e43a25;fill-rule:nonzero;stroke-linejoin:round;stroke-miterlimit:1.41421"
       id="path30" /></g><g
     transform="matrix(-1,0,0,1,4452.5726,0)"
     id="g926"><path
       id="path922"
       style="clip-rule:evenodd;fill:#e43a25;fill-rule:nonzero;stroke-width:4.16667;stroke-linejoin:round;stroke-miterlimit:1.41421"
       d="m 836.42564,2064.8267 c 0,0 -5.76251,572.0671 554.85876,699.7172 l 116.8918,-234.846 c 0,0 -406.2295,39.2958 -437.4795,-464.8712 z" /><path
       id="path924"
       style="clip-rule:evenodd;fill:#e43a25;fill-rule:nonzero;stroke-width:4.16667;stroke-linejoin:round;stroke-miterlimit:1.41421"
       d="m 1726.443,2899.9357 c 0,0 230.0127,30.3958 544.4588,38.15 27.5417,-197.9627 -122.4168,-407.467 -361.6711,-488.5129 -264.3252,-89.5334 -537.4546,11.6333 -610.0589,225.9668 -72.6042,214.3335 82.8168,460.6671 347.142,550.2046 117.1709,39.6917 236.0543,41.8709 338.4544,13.3626 -153.7959,-152.1043 -258.3252,-339.1711 -258.3252,-339.1711 z" /></g></g><g
   sodipodi:insensitive="true"
   inkscape:label="eyes - new"
   id="layer3"
   inkscape:groupmode="layer"><g
     transform="translate(-68)"
     id="g894"><circle
       style="fill:#ffffff;fill-opacity:1;stroke:#ffffff;stroke-linecap:round;stroke-linejoin:bevel"
       id="path882"
       cx="1766.3804"
       cy="1762.1697"
       r="408.43564" /><circle
       r="366.38034"
       cy="1740.0629"
       cx="1754.2736"
       id="circle884"
       style="fill:#030404;fill-opacity:1;stroke:#ffffff;stroke-width:0.897033;stroke-linecap:round;stroke-linejoin:bevel" /><ellipse
       style="fill:#ffffff;fill-opacity:1;stroke:#ffffff;stroke-width:1.08508;stroke-linecap:round;stroke-linejoin:bevel"
       id="path886"
       cx="550.45941"
       cy="2345.7854"
       rx="265.84702"
       ry="199.21303"
       transform="matrix(0.81365178,-0.58135255,0.5261705,0.85037909,0,0)" /><ellipse
       style="fill:#ffffff;fill-opacity:1;stroke:#ffffff;stroke-width:0.846476;stroke-linecap:round;stroke-linejoin:bevel"
       id="path888"
       cx="1770.5897"
       cy="1993.7556"
       rx="82.184959"
       ry="52.71022" /></g><g
     transform="translate(953.0906)"
     id="g904"><circle
       r="408.43564"
       cy="1762.1697"
       cx="1766.3804"
       id="circle896"
       style="fill:#ffffff;fill-opacity:1;stroke:#ffffff;stroke-linecap:round;stroke-linejoin:bevel" /><circle
       style="fill:#030404;fill-opacity:1;stroke:#ffffff;stroke-width:0.897033;stroke-linecap:round;stroke-linejoin:bevel"
       id="circle898"
       cx="1754.2736"
       cy="1740.0629"
       r="366.38034" /><ellipse
       transform="matrix(0.81365178,-0.58135255,0.5261705,0.85037909,0,0)"
       ry="199.21303"
       rx="265.84702"
       cy="2345.7854"
       cx="550.45941"
       id="ellipse900"
       style="fill:#ffffff;fill-opacity:1;stroke:#ffffff;stroke-width:1.08508;stroke-linecap:round;stroke-linejoin:bevel" /><ellipse
       ry="52.71022"
       rx="82.184959"
       cy="1993.7556"
       cx="1770.5897"
       id="ellipse902"
       style="fill:#ffffff;fill-opacity:1;stroke:#ffffff;stroke-width:0.846476;stroke-linecap:round;stroke-linejoin:bevel" /></g></g>
</svg>
